<svg width="25" height="24" viewBox="0 0 25 24" fill="none" xmlns="http://www.w3.org/2000/svg">
<path fill-rule="evenodd" clip-rule="evenodd" d="M20.5 12C20.5 16.4183 16.9183 20 12.5 20C8.08172 20 4.5 16.4183 4.5 12C4.5 7.58172 8.08172 4 12.5 4C16.9183 4 20.5 7.58172 20.5 12ZM22.5 12C22.5 17.5228 18.0228 22 12.5 22C6.97715 22 2.5 17.5228 2.5 12C2.5 6.47715 6.97715 2 12.5 2C18.0228 2 22.5 6.47715 22.5 12ZM11.7929 8.46443C11.4024 8.07391 11.4024 7.44074 11.7929 7.05022C12.1834 6.65969 12.8166 6.65969 13.2071 7.05022L17.4497 11.2929C17.8403 11.6834 17.8403 12.3165 17.4497 12.7071L13.2071 16.9497C12.8166 17.3402 12.1834 17.3402 11.7929 16.9497C11.4024 16.5592 11.4024 15.926 11.7929 15.5355L14.3284 13H8.25736C7.70507 13 7.25736 12.5522 7.25736 12C7.25736 11.4477 7.70507 11 8.25736 11H14.3284L11.7929 8.46443Z" fill="white"/>
</svg>
