<svg width="60" height="60" viewBox="0 0 60 60" fill="none" xmlns="http://www.w3.org/2000/svg">
<path d="M21.5039 9.375C14.8462 9.375 9.375 14.8389 9.375 21.5039V38.496C9.375 45.1538 14.8389 50.625 21.5039 50.625H38.496C45.1538 50.625 50.625 45.1613 50.625 38.496V21.5039C50.625 14.8462 45.1613 9.375 38.496 9.375H21.5039ZM21.5039 13.125H38.496C43.1323 13.125 46.875 16.8677 46.875 21.5039V38.496C46.875 43.1323 43.1323 46.875 38.496 46.875H21.5039C16.8677 46.875 13.125 43.1323 13.125 38.496V21.5039C13.125 16.8677 16.8677 13.125 21.5039 13.125ZM41.0743 17.2266C40.1295 17.2266 39.375 17.981 39.375 18.9258C39.375 19.8706 40.1295 20.625 41.0743 20.625C42.019 20.625 42.7735 19.8706 42.7735 18.9258C42.7735 17.981 42.019 17.2266 41.0743 17.2266ZM30 18.75C23.811 18.75 18.75 23.811 18.75 30C18.75 36.189 23.811 41.25 30 41.25C36.189 41.25 41.25 36.189 41.25 30C41.25 23.811 36.189 18.75 30 18.75ZM30 22.5C34.1675 22.5 37.5 25.8325 37.5 30C37.5 34.1675 34.1675 37.5 30 37.5C25.8325 37.5 22.5 34.1675 22.5 30C22.5 25.8325 25.8325 22.5 30 22.5Z" fill="#FFFDFD"/>
</svg>
