<svg width="28" height="28" viewBox="0 0 28 28" fill="none" xmlns="http://www.w3.org/2000/svg">
<path d="M14 14.0003C12.7166 14.0003 11.618 13.5434 10.7041 12.6295C9.79024 11.7156 9.33329 10.617 9.33329 9.33366C9.33329 8.05033 9.79024 6.95171 10.7041 6.03783C11.618 5.12394 12.7166 4.66699 14 4.66699C15.2833 4.66699 16.3819 5.12394 17.2958 6.03783C18.2097 6.95171 18.6666 8.05033 18.6666 9.33366C18.6666 10.617 18.2097 11.7156 17.2958 12.6295C16.3819 13.5434 15.2833 14.0003 14 14.0003ZM4.66663 23.3337V20.067C4.66663 19.4059 4.83676 18.7982 5.17704 18.2441C5.51732 17.6899 5.9694 17.267 6.53329 16.9753C7.73885 16.3725 8.96385 15.9205 10.2083 15.6191C11.4527 15.3177 12.7166 15.167 14 15.167C15.2833 15.167 16.5472 15.3177 17.7916 15.6191C19.0361 15.9205 20.2611 16.3725 21.4666 16.9753C22.0305 17.267 22.4826 17.6899 22.8229 18.2441C23.1632 18.7982 23.3333 19.4059 23.3333 20.067V23.3337H4.66663ZM6.99996 21.0003H21V20.067C21 19.8531 20.9465 19.6587 20.8395 19.4837C20.7326 19.3087 20.5916 19.1725 20.4166 19.0753C19.3666 18.5503 18.3069 18.1566 17.2375 17.8941C16.168 17.6316 15.0888 17.5003 14 17.5003C12.9111 17.5003 11.8319 17.6316 10.7625 17.8941C9.69301 18.1566 8.63329 18.5503 7.58329 19.0753C7.40829 19.1725 7.26732 19.3087 7.16038 19.4837C7.05343 19.6587 6.99996 19.8531 6.99996 20.067V21.0003ZM14 11.667C14.6416 11.667 15.1909 11.4385 15.6479 10.9816C16.1048 10.5246 16.3333 9.97533 16.3333 9.33366C16.3333 8.69199 16.1048 8.14269 15.6479 7.68574C15.1909 7.2288 14.6416 7.00033 14 7.00033C13.3583 7.00033 12.809 7.2288 12.352 7.68574C11.8951 8.14269 11.6666 8.69199 11.6666 9.33366C11.6666 9.97533 11.8951 10.5246 12.352 10.9816C12.809 11.4385 13.3583 11.667 14 11.667Z" fill="black"/>
</svg>
