<svg width="28" height="28" viewBox="0 0 28 28" fill="none" xmlns="http://www.w3.org/2000/svg">
<path d="M14 25.6663C12.4056 25.6663 10.8987 25.3601 9.47921 24.7476C8.05976 24.1351 6.82018 23.299 5.76046 22.2393C4.70074 21.1795 3.86462 19.94 3.25212 18.5205C2.63962 17.1011 2.33337 15.5941 2.33337 13.9997C2.33337 12.3858 2.63962 10.874 3.25212 9.46426C3.86462 8.05454 4.70074 6.81981 5.76046 5.76009C6.82018 4.70037 8.05976 3.86426 9.47921 3.25176C10.8987 2.63926 12.4056 2.33301 14 2.33301C15.6139 2.33301 17.1257 2.63926 18.5355 3.25176C19.9452 3.86426 21.1799 4.70037 22.2396 5.76009C23.2993 6.81981 24.1355 8.05454 24.748 9.46426C25.3605 10.874 25.6667 12.3858 25.6667 13.9997C25.6667 15.5941 25.3605 17.1011 24.748 18.5205C24.1355 19.94 23.2993 21.1795 22.2396 22.2393C21.1799 23.299 19.9452 24.1351 18.5355 24.7476C17.1257 25.3601 15.6139 25.6663 14 25.6663ZM14 23.2747C14.5056 22.5747 14.9431 21.8455 15.3125 21.0872C15.682 20.3288 15.9834 19.5219 16.2167 18.6663H11.7834C12.0167 19.5219 12.3181 20.3288 12.6875 21.0872C13.057 21.8455 13.4945 22.5747 14 23.2747ZM10.9667 22.808C10.6167 22.1663 10.3105 21.5004 10.048 20.8101C9.78546 20.1198 9.56671 19.4052 9.39171 18.6663H5.95004C6.51393 19.6386 7.21879 20.4844 8.06462 21.2038C8.91046 21.9233 9.87782 22.458 10.9667 22.808ZM17.0334 22.808C18.1223 22.458 19.0896 21.9233 19.9355 21.2038C20.7813 20.4844 21.4862 19.6386 22.05 18.6663H18.6084C18.4334 19.4052 18.2146 20.1198 17.9521 20.8101C17.6896 21.5004 17.3834 22.1663 17.0334 22.808ZM4.95837 16.333H8.92504C8.86671 15.9441 8.82296 15.5601 8.79379 15.1809C8.76462 14.8018 8.75004 14.408 8.75004 13.9997C8.75004 13.5913 8.76462 13.1976 8.79379 12.8184C8.82296 12.4393 8.86671 12.0552 8.92504 11.6663H4.95837C4.86115 12.0552 4.78824 12.4393 4.73962 12.8184C4.69101 13.1976 4.66671 13.5913 4.66671 13.9997C4.66671 14.408 4.69101 14.8018 4.73962 15.1809C4.78824 15.5601 4.86115 15.9441 4.95837 16.333ZM11.2584 16.333H16.7417C16.8 15.9441 16.8438 15.5601 16.873 15.1809C16.9021 14.8018 16.9167 14.408 16.9167 13.9997C16.9167 13.5913 16.9021 13.1976 16.873 12.8184C16.8438 12.4393 16.8 12.0552 16.7417 11.6663H11.2584C11.2 12.0552 11.1563 12.4393 11.1271 12.8184C11.098 13.1976 11.0834 13.5913 11.0834 13.9997C11.0834 14.408 11.098 14.8018 11.1271 15.1809C11.1563 15.5601 11.2 15.9441 11.2584 16.333ZM19.075 16.333H23.0417C23.1389 15.9441 23.2118 15.5601 23.2605 15.1809C23.3091 14.8018 23.3334 14.408 23.3334 13.9997C23.3334 13.5913 23.3091 13.1976 23.2605 12.8184C23.2118 12.4393 23.1389 12.0552 23.0417 11.6663H19.075C19.1334 12.0552 19.1771 12.4393 19.2063 12.8184C19.2355 13.1976 19.25 13.5913 19.25 13.9997C19.25 14.408 19.2355 14.8018 19.2063 15.1809C19.1771 15.5601 19.1334 15.9441 19.075 16.333ZM18.6084 9.33301H22.05C21.4862 8.36079 20.7813 7.51495 19.9355 6.79551C19.0896 6.07606 18.1223 5.54134 17.0334 5.19134C17.3834 5.83301 17.6896 6.49898 17.9521 7.18926C18.2146 7.87954 18.4334 8.59412 18.6084 9.33301ZM11.7834 9.33301H16.2167C15.9834 8.47745 15.682 7.67051 15.3125 6.91217C14.9431 6.15384 14.5056 5.42467 14 4.72467C13.4945 5.42467 13.057 6.15384 12.6875 6.91217C12.3181 7.67051 12.0167 8.47745 11.7834 9.33301ZM5.95004 9.33301H9.39171C9.56671 8.59412 9.78546 7.87954 10.048 7.18926C10.3105 6.49898 10.6167 5.83301 10.9667 5.19134C9.87782 5.54134 8.91046 6.07606 8.06462 6.79551C7.21879 7.51495 6.51393 8.36079 5.95004 9.33301Z" fill="black"/>
</svg>
