<svg width="20" height="20" viewBox="0 0 20 20" fill="none" xmlns="http://www.w3.org/2000/svg">
<path d="M6.66965 10.2024C7.44762 11.7929 8.7369 13.0763 10.3309 13.847C10.4475 13.9023 10.5765 13.9262 10.7052 13.9165C10.8339 13.9067 10.9579 13.8636 11.0648 13.7915L13.4119 12.2264C13.5157 12.1572 13.6352 12.1149 13.7594 12.1035C13.8837 12.0921 14.0088 12.1119 14.1235 12.161L18.5144 14.0428C18.6636 14.1062 18.7881 14.2163 18.8693 14.3566C18.9504 14.4969 18.9838 14.6598 18.9643 14.8207C18.8255 15.9067 18.2956 16.9049 17.4739 17.6283C16.6521 18.3518 15.5948 18.7509 14.5 18.7509C11.1185 18.7509 7.87548 17.4076 5.48439 15.0166C3.0933 12.6255 1.75 9.3825 1.75 6.00095C1.75006 4.90611 2.14918 3.84883 2.87264 3.02708C3.5961 2.20533 4.59428 1.67545 5.68028 1.53667C5.84117 1.5172 6.00403 1.55054 6.14432 1.63167C6.28461 1.71281 6.39473 1.83734 6.4581 1.9865L8.3416 6.3813C8.3903 6.49497 8.4101 6.61893 8.3994 6.74214C8.3886 6.86534 8.3475 6.98397 8.2798 7.08745L6.72011 9.4705C6.64912 9.5778 6.60716 9.70149 6.59831 9.82979C6.58947 9.95809 6.61405 10.0864 6.66965 10.2024Z" stroke="#FFFDFD" stroke-width="2" stroke-linecap="round" stroke-linejoin="round"/>
</svg>
