<svg width="60" height="50" viewBox="0 0 60 50" fill="none" xmlns="http://www.w3.org/2000/svg">
<path d="M12.2214 0.5C5.48185 0.5 0 5.99594 0 12.7478V37.2435C0 43.9954 5.48185 49.4914 12.2214 49.4914C18.9609 49.4914 24.4428 43.9954 24.4428 37.2435V25.896L37.8967 44.4503C40.2856 47.7461 44.0163 49.5 47.8006 49.5C50.2914 49.5 52.8039 48.739 54.9702 47.1644V47.16C60.4211 43.1896 61.6293 35.5167 57.6696 30.054L43.3044 10.2339C39.3381 4.76914 31.6882 3.55585 26.2353 7.5286C25.3912 8.14334 24.6635 8.85464 24.0262 9.62499C22.643 4.38282 17.8822 0.5 12.2214 0.5ZM12.2214 4.95376C16.51 4.95376 19.9987 8.44997 19.9987 12.7478V22.7688H4.44415V12.7478C4.44415 8.44997 7.9328 4.95376 12.2214 4.95376ZM33.4093 9.64239C35.8157 9.64239 38.1888 10.7567 39.7108 12.8522L45.5872 20.9552L33.0055 30.1238L27.125 22.0164C24.6028 18.538 25.3793 13.6574 28.8478 11.1299C30.2255 10.1278 31.8248 9.64239 33.4093 9.64239ZM48.2 24.5566L54.0805 32.668C56.6003 36.1464 55.8262 41.0313 52.3577 43.559C48.8889 46.0863 44.0145 45.3105 41.4947 41.8321L35.6184 33.7248L48.2 24.5566ZM4.44415 27.2226H19.9987V37.2435C19.9987 41.5414 16.51 45.0376 12.2214 45.0376C7.9328 45.0376 4.44415 41.5414 4.44415 37.2435V27.2226Z" fill="white"/>
</svg>
