<svg width="40" height="40" viewBox="0 0 40 40" fill="none" xmlns="http://www.w3.org/2000/svg">
<path d="M5.8335 30.8337C5.8335 24.4143 5.8335 9.16699 5.8335 9.16699C5.8335 6.40558 8.07208 4.16699 10.8335 4.16699H29.1668V25.8337C29.1668 25.8337 15.194 25.8337 10.8335 25.8337C8.0835 25.8337 5.8335 28.0705 5.8335 30.8337Z" stroke="white" stroke-width="2" stroke-linejoin="round"/>
<path d="M29.1668 25.833C29.1668 25.833 11.7949 25.833 10.8335 25.833C8.07208 25.833 5.8335 28.0717 5.8335 30.833C5.8335 33.5943 8.07208 35.833 10.8335 35.833C12.6744 35.833 21.5633 35.833 34.1668 35.833V5.83301" stroke="white" stroke-width="2" stroke-linecap="round" stroke-linejoin="round"/>
<path d="M11.6665 30.833H28.3332" stroke="white" stroke-width="2" stroke-linecap="round" stroke-linejoin="round"/>
</svg>
