<svg width="34" height="34" viewBox="0 0 34 34" fill="none" xmlns="http://www.w3.org/2000/svg">
<path d="M4 30.0003C4.57392 29.3577 8.42973 26.3293 10.3463 24.8365C11.0443 24.2928 11.9005 24.0003 12.7852 24.0003C14.9246 24.0003 19.0473 24.0003 21.1971 24.0003C22.0923 24.0003 22.9569 24.3054 23.6776 24.8362C26.1523 26.6592 28.4721 28.0175 30.9999 30.0003M7 33H26.9999C30.3138 33 32.9999 30.3137 32.9999 27V7C32.9999 3.6863 30.3138 1 26.9999 1H7C3.68628 1 1 3.6863 1 7V27C1 30.3137 3.68628 33 7 33ZM22.7309 12.4534C22.7309 9.40088 20.1541 6.9068 16.9999 6.9068C13.8461 6.9068 11.2691 9.40088 11.2691 12.4534C11.2691 15.5059 13.8461 18 16.9999 18C20.1539 18 22.7309 15.5059 22.7309 12.4534Z" stroke="#6F6F6F" stroke-width="2"/>
</svg>
